<svg width="307" height="81" viewBox="0 0 307 81" fill="none" xmlns="http://www.w3.org/2000/svg">
<rect width="307" height="81" fill="#F2F2F2"/>
<path d="M49.3454 22.0883C47.8162 21.5294 46.3676 21 44.125 21C39.375 21 37 25.75 37 31.6875C37 35.4839 37.971 37.824 38.9817 40.2596C39.5517 41.6333 40.1343 43.0371 40.5625 44.75C40.9164 46.1655 41.0594 48.2137 41.2114 50.3918C41.5695 55.523 41.978 61.375 45.3125 61.375C47.4476 61.375 48.383 58.016 49.413 54.3179C50.6744 49.7883 52.0777 44.75 56 44.75C59.9223 44.75 61.3255 49.7883 62.5871 54.3179C63.6169 58.016 64.5524 61.375 66.6875 61.375C70.022 61.375 70.4305 55.523 70.7887 50.3918C70.9407 48.2137 71.0836 46.1655 71.4375 44.75C71.8657 43.0371 72.4483 41.6333 73.0183 40.2596C74.0291 37.824 75 35.4839 75 31.6875C75 25.75 72.625 21 67.875 21C65.6323 21 64.1838 21.5294 62.6545 22.0883C60.9447 22.7132 59.1343 23.375 56 23.375C52.8657 23.375 51.0552 22.7132 49.3454 22.0883Z" stroke="black" stroke-width="3" stroke-linecap="round" stroke-linejoin="round"/>
<path d="M110.864 41.4545C110.864 44.589 110.277 47.2737 109.102 49.5085C107.938 51.7339 106.347 53.4384 104.33 54.6222C102.322 55.8059 100.045 56.3977 97.4972 56.3977C94.9498 56.3977 92.6676 55.8059 90.6506 54.6222C88.643 53.429 87.0521 51.7197 85.8778 49.4943C84.7131 47.2595 84.1307 44.5795 84.1307 41.4545C84.1307 38.3201 84.7131 35.6402 85.8778 33.4148C87.0521 31.1799 88.643 29.4706 90.6506 28.2869C92.6676 27.1032 94.9498 26.5114 97.4972 26.5114C100.045 26.5114 102.322 27.1032 104.33 28.2869C106.347 29.4706 107.938 31.1799 109.102 33.4148C110.277 35.6402 110.864 38.3201 110.864 41.4545ZM105.565 41.4545C105.565 39.2481 105.22 37.3873 104.528 35.8722C103.847 34.3475 102.9 33.197 101.688 32.4205C100.475 31.6345 99.0786 31.2415 97.4972 31.2415C95.9157 31.2415 94.5189 31.6345 93.3068 32.4205C92.0947 33.197 91.143 34.3475 90.4517 35.8722C89.7699 37.3873 89.429 39.2481 89.429 41.4545C89.429 43.661 89.7699 45.5265 90.4517 47.0511C91.143 48.5663 92.0947 49.7169 93.3068 50.5028C94.5189 51.2794 95.9157 51.6676 97.4972 51.6676C99.0786 51.6676 100.475 51.2794 101.688 50.5028C102.9 49.7169 103.847 48.5663 104.528 47.0511C105.22 45.5265 105.565 43.661 105.565 41.4545ZM113.619 56V34.1818H118.604V37.8182H118.832C119.229 36.5587 119.911 35.5881 120.877 34.9062C121.853 34.215 122.965 33.8693 124.215 33.8693C124.499 33.8693 124.817 33.8835 125.167 33.9119C125.527 33.9309 125.825 33.964 126.062 34.0114V38.7415C125.844 38.6657 125.498 38.5994 125.025 38.5426C124.561 38.4763 124.111 38.4432 123.675 38.4432C122.738 38.4432 121.895 38.6468 121.147 39.054C120.408 39.4517 119.826 40.0057 119.4 40.7159C118.974 41.4261 118.761 42.2453 118.761 43.1733V56H113.619ZM139.545 34.1818V38.1591H127.002V34.1818H139.545ZM130.099 28.9545H135.241V49.4375C135.241 50.1288 135.345 50.6591 135.553 51.0284C135.771 51.3883 136.055 51.6345 136.406 51.767C136.756 51.8996 137.144 51.9659 137.57 51.9659C137.892 51.9659 138.186 51.9422 138.451 51.8949C138.726 51.8475 138.934 51.8049 139.076 51.767L139.942 55.7869C139.668 55.8816 139.275 55.9858 138.763 56.0994C138.262 56.2131 137.646 56.2794 136.917 56.2983C135.629 56.3362 134.469 56.142 133.437 55.7159C132.405 55.2803 131.585 54.608 130.979 53.6989C130.383 52.7898 130.089 51.6534 130.099 50.2898V28.9545ZM147.456 43.2159V56H142.314V26.9091H147.342V37.8892H147.598C148.109 36.6581 148.9 35.6875 149.97 34.9773C151.05 34.2576 152.423 33.8977 154.089 33.8977C155.605 33.8977 156.926 34.215 158.053 34.8494C159.179 35.4839 160.051 36.4119 160.666 37.6335C161.291 38.8551 161.604 40.3466 161.604 42.108V56H156.462V42.9034C156.462 41.4356 156.083 40.2945 155.325 39.4801C154.577 38.6562 153.526 38.2443 152.172 38.2443C151.263 38.2443 150.448 38.4432 149.729 38.8409C149.018 39.2292 148.46 39.7926 148.053 40.5312C147.655 41.2699 147.456 42.1648 147.456 43.2159ZM174.362 56.4261C172.232 56.4261 170.385 55.9574 168.822 55.0199C167.26 54.0824 166.048 52.7708 165.186 51.0852C164.334 49.3996 163.908 47.4299 163.908 45.1761C163.908 42.9223 164.334 40.9479 165.186 39.2528C166.048 37.5578 167.26 36.2415 168.822 35.304C170.385 34.3665 172.232 33.8977 174.362 33.8977C176.493 33.8977 178.339 34.3665 179.902 35.304C181.464 36.2415 182.672 37.5578 183.524 39.2528C184.386 40.9479 184.817 42.9223 184.817 45.1761C184.817 47.4299 184.386 49.3996 183.524 51.0852C182.672 52.7708 181.464 54.0824 179.902 55.0199C178.339 55.9574 176.493 56.4261 174.362 56.4261ZM174.391 52.3068C175.546 52.3068 176.512 51.9896 177.288 51.3551C178.065 50.7112 178.643 49.8494 179.021 48.7699C179.41 47.6903 179.604 46.4877 179.604 45.1619C179.604 43.8267 179.41 42.6193 179.021 41.5398C178.643 40.4508 178.065 39.5843 177.288 38.9403C176.512 38.2964 175.546 37.9744 174.391 37.9744C173.207 37.9744 172.222 38.2964 171.436 38.9403C170.66 39.5843 170.077 40.4508 169.689 41.5398C169.31 42.6193 169.121 43.8267 169.121 45.1619C169.121 46.4877 169.31 47.6903 169.689 48.7699C170.077 49.8494 170.66 50.7112 171.436 51.3551C172.222 51.9896 173.207 52.3068 174.391 52.3068ZM212.309 36.7244H206.996C206.845 35.8532 206.566 35.0814 206.158 34.4091C205.751 33.7273 205.245 33.1496 204.638 32.6761C204.032 32.2027 203.341 31.8475 202.565 31.6108C201.798 31.3646 200.969 31.2415 200.079 31.2415C198.497 31.2415 197.096 31.6392 195.874 32.4347C194.653 33.2206 193.696 34.3759 193.005 35.9006C192.314 37.4157 191.968 39.267 191.968 41.4545C191.968 43.6799 192.314 45.5549 193.005 47.0795C193.706 48.5947 194.662 49.7405 195.874 50.517C197.096 51.2841 198.493 51.6676 200.065 51.6676C200.936 51.6676 201.75 51.554 202.508 51.3267C203.275 51.09 203.961 50.7443 204.567 50.2898C205.183 49.8352 205.699 49.2765 206.116 48.6136C206.542 47.9508 206.835 47.1932 206.996 46.3409L212.309 46.3693C212.11 47.7519 211.679 49.0492 211.016 50.2614C210.363 51.4735 209.506 52.5436 208.445 53.4716C207.385 54.3902 206.144 55.1098 204.724 55.6307C203.303 56.142 201.727 56.3977 199.994 56.3977C197.437 56.3977 195.155 55.8059 193.147 54.6222C191.139 53.4384 189.558 51.7292 188.403 49.4943C187.247 47.2595 186.67 44.5795 186.67 41.4545C186.67 38.3201 187.252 35.6402 188.417 33.4148C189.582 31.1799 191.168 29.4706 193.175 28.2869C195.183 27.1032 197.456 26.5114 199.994 26.5114C201.613 26.5114 203.119 26.7386 204.511 27.1932C205.903 27.6477 207.143 28.3153 208.232 29.196C209.321 30.0672 210.216 31.1373 210.917 32.4062C211.627 33.6657 212.091 35.1051 212.309 36.7244ZM221.186 56.4403C219.804 56.4403 218.558 56.1941 217.45 55.7017C216.352 55.1998 215.481 54.4612 214.837 53.4858C214.202 52.5104 213.885 51.3078 213.885 49.8778C213.885 48.6468 214.112 47.6288 214.567 46.8239C215.021 46.0189 215.642 45.375 216.428 44.892C217.214 44.4091 218.099 44.0445 219.084 43.7983C220.078 43.5426 221.106 43.358 222.166 43.2443C223.445 43.1117 224.482 42.9934 225.277 42.8892C226.072 42.7756 226.65 42.6051 227.01 42.3778C227.379 42.1411 227.564 41.7765 227.564 41.2841V41.1989C227.564 40.1288 227.247 39.3002 226.612 38.7131C225.978 38.1259 225.064 37.8324 223.871 37.8324C222.611 37.8324 221.612 38.107 220.874 38.6562C220.144 39.2055 219.652 39.8542 219.396 40.6023L214.595 39.9205C214.974 38.5947 215.599 37.4867 216.47 36.5966C217.341 35.697 218.407 35.0246 219.666 34.5795C220.926 34.125 222.318 33.8977 223.842 33.8977C224.893 33.8977 225.94 34.0208 226.982 34.267C228.023 34.5133 228.975 34.9205 229.837 35.4886C230.698 36.0473 231.39 36.8097 231.911 37.7756C232.441 38.7415 232.706 39.9489 232.706 41.3977V56H227.763V53.0028H227.592C227.28 53.6089 226.839 54.1771 226.271 54.7074C225.713 55.2282 225.007 55.6496 224.155 55.9716C223.312 56.2841 222.322 56.4403 221.186 56.4403ZM222.521 52.6619C223.554 52.6619 224.448 52.4583 225.206 52.0511C225.964 51.6345 226.546 51.0852 226.953 50.4034C227.37 49.7216 227.578 48.9782 227.578 48.1733V45.6023C227.417 45.7348 227.143 45.858 226.754 45.9716C226.375 46.0852 225.949 46.1847 225.476 46.2699C225.002 46.3551 224.534 46.4309 224.07 46.4972C223.606 46.5634 223.203 46.6203 222.862 46.6676C222.095 46.7718 221.409 46.9422 220.803 47.179C220.196 47.4157 219.718 47.7472 219.368 48.1733C219.018 48.59 218.842 49.1297 218.842 49.7926C218.842 50.7396 219.188 51.4545 219.879 51.9375C220.571 52.4205 221.451 52.6619 222.521 52.6619ZM235.876 56V34.1818H240.862V37.8182H241.089C241.487 36.5587 242.169 35.5881 243.135 34.9062C244.11 34.215 245.223 33.8693 246.473 33.8693C246.757 33.8693 247.074 33.8835 247.425 33.9119C247.785 33.9309 248.083 33.964 248.32 34.0114V38.7415C248.102 38.6657 247.756 38.5994 247.283 38.5426C246.819 38.4763 246.369 38.4432 245.933 38.4432C244.996 38.4432 244.153 38.6468 243.405 39.054C242.666 39.4517 242.084 40.0057 241.658 40.7159C241.232 41.4261 241.018 42.2453 241.018 43.1733V56H235.876ZM258.496 56.4261C256.309 56.4261 254.42 55.9716 252.829 55.0625C251.247 54.1439 250.031 52.8466 249.178 51.1705C248.326 49.4848 247.9 47.5009 247.9 45.2188C247.9 42.9744 248.326 41.0047 249.178 39.3097C250.04 37.6051 251.243 36.2794 252.786 35.3324C254.33 34.3759 256.143 33.8977 258.227 33.8977C259.571 33.8977 260.84 34.1155 262.033 34.5511C263.236 34.9773 264.297 35.6402 265.215 36.5398C266.143 37.4394 266.872 38.5852 267.403 39.9773C267.933 41.3598 268.198 43.0076 268.198 44.9205V46.4972H250.315V43.0312H263.269C263.26 42.0464 263.047 41.1705 262.63 40.4034C262.213 39.6269 261.631 39.0161 260.883 38.571C260.144 38.1259 259.282 37.9034 258.298 37.9034C257.246 37.9034 256.323 38.1591 255.528 38.6705C254.732 39.1723 254.112 39.8352 253.667 40.6591C253.231 41.4735 253.009 42.3684 252.999 43.3438V46.3693C252.999 47.6383 253.231 48.7273 253.695 49.6364C254.159 50.536 254.808 51.2273 255.641 51.7102C256.475 52.1837 257.45 52.4205 258.567 52.4205C259.316 52.4205 259.993 52.3163 260.599 52.108C261.205 51.8902 261.73 51.5729 262.175 51.1562C262.621 50.7396 262.957 50.2235 263.184 49.608L267.985 50.1477C267.682 51.4167 267.104 52.5246 266.252 53.4716C265.409 54.4091 264.33 55.1383 263.013 55.6591C261.697 56.1705 260.192 56.4261 258.496 56.4261Z" fill="#3B4B84"/>
</svg>
