<svg width="100" height="100" viewBox="0 0 100 100" fill="none" xmlns="http://www.w3.org/2000/svg">
<rect x="4" y="4" width="92" height="92" rx="4" fill="#F2F2F2" stroke="#3B4B84" stroke-width="8"/>
<path d="M40.1932 21.6174C37.9396 20.7867 35.8049 20 32.5 20C25.5 20 22 27.0588 22 35.8824C22 41.5241 23.431 45.0016 24.9204 48.6211C25.7604 50.6625 26.619 52.7487 27.25 55.2941C27.7715 57.3976 27.9822 60.4414 28.2062 63.6782C28.734 71.3035 29.336 80 34.25 80C37.3964 80 38.775 75.0084 40.2928 69.5127C42.1518 62.7814 44.2198 55.2941 50 55.2941C55.7802 55.2941 57.8481 62.7814 59.7073 69.5127C61.2249 75.0084 62.6035 80 65.75 80C70.664 80 71.266 71.3035 71.7938 63.6782C72.0178 60.4414 72.2285 57.3976 72.75 55.2941C73.381 52.7487 74.2396 50.6625 75.0796 48.6211C76.5692 45.0016 78 41.5241 78 35.8824C78 27.0588 74.5 20 67.5 20C64.195 20 62.0603 20.7867 59.8066 21.6174C57.287 22.546 54.619 23.5294 50 23.5294C45.381 23.5294 42.7129 22.546 40.1932 21.6174Z" stroke="black" stroke-width="5" stroke-linecap="round" stroke-linejoin="round"/>
</svg>
