<svg width="235" height="48" viewBox="0 0 235 48" fill="none" xmlns="http://www.w3.org/2000/svg">
<path d="M14.3454 5.08834C12.8162 4.52941 11.3676 4 9.125 4C4.375 4 2 8.75 2 14.6875C2 18.4839 2.97102 20.824 3.98172 23.2596C4.5517 24.6333 5.13431 26.0371 5.5625 27.75C5.91638 29.1655 6.05935 31.2137 6.21137 33.3918C6.56952 38.523 6.978 44.375 10.3125 44.375C12.4476 44.375 13.383 41.016 14.413 37.3179C15.6744 32.7883 17.0777 27.75 21 27.75C24.9223 27.75 26.3255 32.7883 27.5871 37.3179C28.6169 41.016 29.5524 44.375 31.6875 44.375C35.022 44.375 35.4305 38.523 35.7887 33.3918C35.9407 31.2137 36.0836 29.1655 36.4375 27.75C36.8657 26.0371 37.4483 24.6333 38.0183 23.2596C39.0291 20.824 40 18.4839 40 14.6875C40 8.75 37.625 4 32.875 4C30.6323 4 29.1838 4.52941 27.6545 5.08834C25.9447 5.71323 24.1343 6.375 21 6.375C17.8657 6.375 16.0552 5.71323 14.3454 5.08834Z" stroke="black" stroke-width="3" stroke-linecap="round" stroke-linejoin="round"/>
<path d="M75.8636 24.4545C75.8636 27.589 75.2765 30.2737 74.1023 32.5085C72.9375 34.7339 71.3466 36.4384 69.3295 37.6222C67.322 38.8059 65.0445 39.3977 62.4972 39.3977C59.9498 39.3977 57.6676 38.8059 55.6506 37.6222C53.643 36.429 52.0521 34.7197 50.8778 32.4943C49.7131 30.2595 49.1307 27.5795 49.1307 24.4545C49.1307 21.3201 49.7131 18.6402 50.8778 16.4148C52.0521 14.1799 53.643 12.4706 55.6506 11.2869C57.6676 10.1032 59.9498 9.51136 62.4972 9.51136C65.0445 9.51136 67.322 10.1032 69.3295 11.2869C71.3466 12.4706 72.9375 14.1799 74.1023 16.4148C75.2765 18.6402 75.8636 21.3201 75.8636 24.4545ZM70.5653 24.4545C70.5653 22.2481 70.2197 20.3873 69.5284 18.8722C68.8466 17.3475 67.8996 16.197 66.6875 15.4205C65.4754 14.6345 64.0786 14.2415 62.4972 14.2415C60.9157 14.2415 59.5189 14.6345 58.3068 15.4205C57.0947 16.197 56.143 17.3475 55.4517 18.8722C54.7699 20.3873 54.429 22.2481 54.429 24.4545C54.429 26.661 54.7699 28.5265 55.4517 30.0511C56.143 31.5663 57.0947 32.7169 58.3068 33.5028C59.5189 34.2794 60.9157 34.6676 62.4972 34.6676C64.0786 34.6676 65.4754 34.2794 66.6875 33.5028C67.8996 32.7169 68.8466 31.5663 69.5284 30.0511C70.2197 28.5265 70.5653 26.661 70.5653 24.4545ZM78.6186 39V17.1818H83.6044V20.8182H83.8317C84.2294 19.5587 84.9112 18.5881 85.8771 17.9062C86.8525 17.215 87.9652 16.8693 89.2152 16.8693C89.4993 16.8693 89.8165 16.8835 90.1669 16.9119C90.5268 16.9309 90.825 16.964 91.0618 17.0114V21.7415C90.844 21.6657 90.4983 21.5994 90.0249 21.5426C89.5608 21.4763 89.111 21.4432 88.6754 21.4432C87.7379 21.4432 86.8951 21.6468 86.147 22.054C85.4084 22.4517 84.826 23.0057 84.3999 23.7159C83.9737 24.4261 83.7607 25.2453 83.7607 26.1733V39H78.6186ZM104.545 17.1818V21.1591H92.0021V17.1818H104.545ZM95.0987 11.9545H100.241V32.4375C100.241 33.1288 100.345 33.6591 100.553 34.0284C100.771 34.3883 101.055 34.6345 101.406 34.767C101.756 34.8996 102.144 34.9659 102.57 34.9659C102.892 34.9659 103.186 34.9422 103.451 34.8949C103.726 34.8475 103.934 34.8049 104.076 34.767L104.942 38.7869C104.668 38.8816 104.275 38.9858 103.763 39.0994C103.262 39.2131 102.646 39.2794 101.917 39.2983C100.629 39.3362 99.469 39.142 98.4368 38.7159C97.4046 38.2803 96.5855 37.608 95.9794 36.6989C95.3828 35.7898 95.0893 34.6534 95.0987 33.2898V11.9545ZM112.456 26.2159V39H107.314V9.90909H112.342V20.8892H112.598C113.109 19.6581 113.9 18.6875 114.97 17.9773C116.05 17.2576 117.423 16.8977 119.089 16.8977C120.605 16.8977 121.926 17.215 123.053 17.8494C124.179 18.4839 125.051 19.4119 125.666 20.6335C126.291 21.8551 126.604 23.3466 126.604 25.108V39H121.462V25.9034C121.462 24.4356 121.083 23.2945 120.325 22.4801C119.577 21.6562 118.526 21.2443 117.172 21.2443C116.263 21.2443 115.448 21.4432 114.729 21.8409C114.018 22.2292 113.46 22.7926 113.053 23.5312C112.655 24.2699 112.456 25.1648 112.456 26.2159ZM139.362 39.4261C137.232 39.4261 135.385 38.9574 133.822 38.0199C132.26 37.0824 131.048 35.7708 130.186 34.0852C129.334 32.3996 128.908 30.4299 128.908 28.1761C128.908 25.9223 129.334 23.9479 130.186 22.2528C131.048 20.5578 132.26 19.2415 133.822 18.304C135.385 17.3665 137.232 16.8977 139.362 16.8977C141.493 16.8977 143.339 17.3665 144.902 18.304C146.464 19.2415 147.672 20.5578 148.524 22.2528C149.386 23.9479 149.817 25.9223 149.817 28.1761C149.817 30.4299 149.386 32.3996 148.524 34.0852C147.672 35.7708 146.464 37.0824 144.902 38.0199C143.339 38.9574 141.493 39.4261 139.362 39.4261ZM139.391 35.3068C140.546 35.3068 141.512 34.9896 142.288 34.3551C143.065 33.7112 143.643 32.8494 144.021 31.7699C144.41 30.6903 144.604 29.4877 144.604 28.1619C144.604 26.8267 144.41 25.6193 144.021 24.5398C143.643 23.4508 143.065 22.5843 142.288 21.9403C141.512 21.2964 140.546 20.9744 139.391 20.9744C138.207 20.9744 137.222 21.2964 136.436 21.9403C135.66 22.5843 135.077 23.4508 134.689 24.5398C134.31 25.6193 134.121 26.8267 134.121 28.1619C134.121 29.4877 134.31 30.6903 134.689 31.7699C135.077 32.8494 135.66 33.7112 136.436 34.3551C137.222 34.9896 138.207 35.3068 139.391 35.3068ZM177.309 19.7244H171.996C171.845 18.8532 171.566 18.0814 171.158 17.4091C170.751 16.7273 170.245 16.1496 169.638 15.6761C169.032 15.2027 168.341 14.8475 167.565 14.6108C166.798 14.3646 165.969 14.2415 165.079 14.2415C163.497 14.2415 162.096 14.6392 160.874 15.4347C159.653 16.2206 158.696 17.3759 158.005 18.9006C157.314 20.4157 156.968 22.267 156.968 24.4545C156.968 26.6799 157.314 28.5549 158.005 30.0795C158.706 31.5947 159.662 32.7405 160.874 33.517C162.096 34.2841 163.493 34.6676 165.065 34.6676C165.936 34.6676 166.75 34.554 167.508 34.3267C168.275 34.09 168.961 33.7443 169.567 33.2898C170.183 32.8352 170.699 32.2765 171.116 31.6136C171.542 30.9508 171.835 30.1932 171.996 29.3409L177.309 29.3693C177.11 30.7519 176.679 32.0492 176.016 33.2614C175.363 34.4735 174.506 35.5436 173.445 36.4716C172.385 37.3902 171.144 38.1098 169.724 38.6307C168.303 39.142 166.727 39.3977 164.994 39.3977C162.437 39.3977 160.155 38.8059 158.147 37.6222C156.139 36.4384 154.558 34.7292 153.403 32.4943C152.247 30.2595 151.67 27.5795 151.67 24.4545C151.67 21.3201 152.252 18.6402 153.417 16.4148C154.582 14.1799 156.168 12.4706 158.175 11.2869C160.183 10.1032 162.456 9.51136 164.994 9.51136C166.613 9.51136 168.119 9.73864 169.511 10.1932C170.903 10.6477 172.143 11.3153 173.232 12.196C174.321 13.0672 175.216 14.1373 175.917 15.4062C176.627 16.6657 177.091 18.1051 177.309 19.7244ZM186.186 39.4403C184.804 39.4403 183.558 39.1941 182.45 38.7017C181.352 38.1998 180.481 37.4612 179.837 36.4858C179.202 35.5104 178.885 34.3078 178.885 32.8778C178.885 31.6468 179.112 30.6288 179.567 29.8239C180.021 29.0189 180.642 28.375 181.428 27.892C182.214 27.4091 183.099 27.0445 184.084 26.7983C185.078 26.5426 186.106 26.358 187.166 26.2443C188.445 26.1117 189.482 25.9934 190.277 25.8892C191.072 25.7756 191.65 25.6051 192.01 25.3778C192.379 25.1411 192.564 24.7765 192.564 24.2841V24.1989C192.564 23.1288 192.247 22.3002 191.612 21.7131C190.978 21.1259 190.064 20.8324 188.871 20.8324C187.611 20.8324 186.612 21.107 185.874 21.6562C185.144 22.2055 184.652 22.8542 184.396 23.6023L179.595 22.9205C179.974 21.5947 180.599 20.4867 181.47 19.5966C182.341 18.697 183.407 18.0246 184.666 17.5795C185.926 17.125 187.318 16.8977 188.842 16.8977C189.893 16.8977 190.94 17.0208 191.982 17.267C193.023 17.5133 193.975 17.9205 194.837 18.4886C195.698 19.0473 196.39 19.8097 196.911 20.7756C197.441 21.7415 197.706 22.9489 197.706 24.3977V39H192.763V36.0028H192.592C192.28 36.6089 191.839 37.1771 191.271 37.7074C190.713 38.2282 190.007 38.6496 189.155 38.9716C188.312 39.2841 187.322 39.4403 186.186 39.4403ZM187.521 35.6619C188.554 35.6619 189.448 35.4583 190.206 35.0511C190.964 34.6345 191.546 34.0852 191.953 33.4034C192.37 32.7216 192.578 31.9782 192.578 31.1733V28.6023C192.417 28.7348 192.143 28.858 191.754 28.9716C191.375 29.0852 190.949 29.1847 190.476 29.2699C190.002 29.3551 189.534 29.4309 189.07 29.4972C188.606 29.5634 188.203 29.6203 187.862 29.6676C187.095 29.7718 186.409 29.9422 185.803 30.179C185.196 30.4157 184.718 30.7472 184.368 31.1733C184.018 31.59 183.842 32.1297 183.842 32.7926C183.842 33.7396 184.188 34.4545 184.879 34.9375C185.571 35.4205 186.451 35.6619 187.521 35.6619ZM200.876 39V17.1818H205.862V20.8182H206.089C206.487 19.5587 207.169 18.5881 208.135 17.9062C209.11 17.215 210.223 16.8693 211.473 16.8693C211.757 16.8693 212.074 16.8835 212.425 16.9119C212.785 16.9309 213.083 16.964 213.32 17.0114V21.7415C213.102 21.6657 212.756 21.5994 212.283 21.5426C211.819 21.4763 211.369 21.4432 210.933 21.4432C209.996 21.4432 209.153 21.6468 208.405 22.054C207.666 22.4517 207.084 23.0057 206.658 23.7159C206.232 24.4261 206.018 25.2453 206.018 26.1733V39H200.876ZM223.496 39.4261C221.309 39.4261 219.42 38.9716 217.829 38.0625C216.247 37.1439 215.031 35.8466 214.178 34.1705C213.326 32.4848 212.9 30.5009 212.9 28.2188C212.9 25.9744 213.326 24.0047 214.178 22.3097C215.04 20.6051 216.243 19.2794 217.786 18.3324C219.33 17.3759 221.143 16.8977 223.227 16.8977C224.571 16.8977 225.84 17.1155 227.033 17.5511C228.236 17.9773 229.297 18.6402 230.215 19.5398C231.143 20.4394 231.872 21.5852 232.403 22.9773C232.933 24.3598 233.198 26.0076 233.198 27.9205V29.4972H215.315V26.0312H228.269C228.26 25.0464 228.047 24.1705 227.63 23.4034C227.213 22.6269 226.631 22.0161 225.883 21.571C225.144 21.1259 224.282 20.9034 223.298 20.9034C222.246 20.9034 221.323 21.1591 220.528 21.6705C219.732 22.1723 219.112 22.8352 218.667 23.6591C218.231 24.4735 218.009 25.3684 217.999 26.3438V29.3693C217.999 30.6383 218.231 31.7273 218.695 32.6364C219.159 33.536 219.808 34.2273 220.641 34.7102C221.475 35.1837 222.45 35.4205 223.567 35.4205C224.316 35.4205 224.993 35.3163 225.599 35.108C226.205 34.8902 226.73 34.5729 227.175 34.1562C227.621 33.7396 227.957 33.2235 228.184 32.608L232.985 33.1477C232.682 34.4167 232.104 35.5246 231.252 36.4716C230.409 37.4091 229.33 38.1383 228.013 38.6591C226.697 39.1705 225.192 39.4261 223.496 39.4261Z" fill="#3B4B84"/>
</svg>
