<svg xmlns:xlink="http://www.w3.org/1999/xlink" xmlns="http://www.w3.org/2000/svg" class="width-full overflow-visible block" style="padding-bottom: 26%; height: 1px;" preserveAspectRatio="xMidYMin slice" viewBox="0 0 188 49" width="188"  height="49" ><path fill="#3CBAD9" d="M41.25,16.12H34.38a1.91,1.91,0,1,0,0,3.82h6.87a2.67,2.67,0,0,1,2.67,2.67v2.86a2.67,2.67,0,0,1-2.67,2.67H34.38a1.91,1.91,0,0,0,0,3.82h6.87a6.5,6.5,0,0,0,6.49-6.49V22.61a6.49,6.49,0,0,0-6.49-6.49"></path><path fill="#3CBAD9" d="M6.49,19.94h6.87a1.91,1.91,0,1,0,0-3.82H6.49A6.5,6.5,0,0,0,0,22.61v2.86A6.49,6.49,0,0,0,6.49,32h6.87a1.91,1.91,0,1,0,0-3.82H6.49a2.67,2.67,0,0,1-2.67-2.67V22.61a2.67,2.67,0,0,1,2.67-2.67"></path><path fill="#3CBAD9" d="M17.76,15.55a1.91,1.91,0,0,0,1.91-1.91V10L15.85,7.8v5.85a1.91,1.91,0,0,0,1.91,1.91"></path><path fill="#3CBAD9" d="M13.67,4.39l14.2,8.42v.83a1.91,1.91,0,0,0,3.82,0V6.49A6.5,6.5,0,0,0,25.2,0H22.34a6.47,6.47,0,0,0-4.87,2.21l-1.85-1.1a1.91,1.91,0,0,0-1.95,3.28m8.66-.58H25.2a2.68,2.68,0,0,1,2.67,2.67V8.37l-7-4.13a2.66,2.66,0,0,1,1.44-.42"></path><path fill="#3CBAD9" d="M29.92,33A1.91,1.91,0,0,0,28,34.93v3.6l3.82,2.25V34.93A1.91,1.91,0,0,0,29.92,33"></path><path fill="#3CBAD9" d="M34,44.18l-14.2-8.42v-.84a1.91,1.91,0,0,0-3.82,0v7.16a6.5,6.5,0,0,0,6.49,6.49h2.86a6.47,6.47,0,0,0,4.87-2.2l1.85,1.09A1.91,1.91,0,0,0,34,44.18m-8.66.58H22.48a2.68,2.68,0,0,1-2.67-2.67V40.2l7,4.13a2.65,2.65,0,0,1-1.44.42"></path><path fill="#4C565C" d="M65.82,10.08A.89.89,0,0,0,65,9.51h-.09a.9.9,0,0,0-.86.58L61.7,15.33a.79.79,0,0,0-.08.31.68.68,0,0,0,.67.69.72.72,0,0,0,.68-.46l.47-1.09h2.93l.45,1a.75.75,0,0,0,.71.5.7.7,0,0,0,.69-.7.72.72,0,0,0-.08-.3ZM64,13.49l.93-2.2.92,2.2Z"></path><path fill="#4C565C" d="M71.61,16.37c1.44,0,2.45-.74,2.45-2.07v0c0-1.16-.76-1.65-2.11-2-1.15-.3-1.44-.44-1.44-.88v0c0-.33.3-.58.86-.58a2.78,2.78,0,0,1,1.4.45.71.71,0,0,0,.37.1.68.68,0,0,0,.36-1.26,3.88,3.88,0,0,0-2.11-.59,2.08,2.08,0,0,0-2.33,2v0c0,1.32.87,1.7,2.21,2,1.11.29,1.34.48,1.34.85v0c0,.39-.36.63-1,.63a2.8,2.8,0,0,1-1.71-.6.72.72,0,0,0-.42-.13.67.67,0,0,0-.69.67.69.69,0,0,0,.28.55,4.31,4.31,0,0,0,2.5.8"></path><path fill="#4C565C" d="M77.53,16.37C79,16.37,80,15.63,80,14.3v0c0-1.16-.76-1.65-2.11-2-1.15-.3-1.44-.44-1.44-.88v0c0-.33.3-.58.86-.58a2.78,2.78,0,0,1,1.4.45.71.71,0,0,0,.37.1.68.68,0,0,0,.69-.68.67.67,0,0,0-.32-.58,3.86,3.86,0,0,0-2.11-.59,2.08,2.08,0,0,0-2.33,2v0c0,1.32.87,1.7,2.21,2,1.11.29,1.34.48,1.34.85v0c0,.39-.36.63-1,.63a2.81,2.81,0,0,1-1.71-.6.71.71,0,0,0-.42-.13.67.67,0,0,0-.69.67.69.69,0,0,0,.28.55,4.31,4.31,0,0,0,2.5.8"></path><path fill="#4C565C" d="M84.41,16.39A3.45,3.45,0,0,0,88,12.94v0a3.54,3.54,0,0,0-7.08,0v0A3.42,3.42,0,0,0,84.41,16.39Zm-2-3.47a2,2,0,0,1,2-2.08,2,2,0,0,1,2,2.1v0a2,2,0,0,1-2,2.08,2,2,0,0,1-2-2.1Z"></path><path fill="#4C565C" d="M92.3,16.39a3.35,3.35,0,0,0,2.37-.84.68.68,0,0,0-.44-1.2.68.68,0,0,0-.44.16,2.13,2.13,0,0,1-1.45.52,2,2,0,0,1-1.93-2.09v0a2,2,0,0,1,1.93-2.08,2.19,2.19,0,0,1,1.36.48.78.78,0,0,0,.44.14.71.71,0,0,0,.72-.71.73.73,0,0,0-.29-.58,3.53,3.53,0,0,0-2.23-.68,3.39,3.39,0,0,0-3.48,3.45v0a3.36,3.36,0,0,0,3.42,3.43"></path><path fill="#4C565C" d="M96.93,16.33a.73.73,0,0,0,.73-.73V10.28a.73.73,0,0,0-1.47,0V15.6a.73.73,0,0,0,.73.73"></path><path fill="#4C565C" d="M99.46,16.33a.72.72,0,0,0,.68-.46l.47-1.1h2.93l.45,1a.75.75,0,0,0,.71.51.7.7,0,0,0,.69-.71.7.7,0,0,0-.08-.29L103,10.08a.9.9,0,0,0-.85-.58h-.08a.91.91,0,0,0-.86.58l-2.32,5.25a.8.8,0,0,0-.08.31A.68.68,0,0,0,99.46,16.33Zm2.61-5,.92,2.2h-1.85Z"></path><path fill="#4C565C" d="M108,16.33a.73.73,0,0,0,.73-.73V11h1.41a.68.68,0,0,0,0-1.35h-4.29a.68.68,0,0,0,0,1.35h1.41V15.6a.73.73,0,0,0,.73.73"></path><path fill="#4C565C" d="M112.62,16.33a.73.73,0,0,0,.73-.73V10.28a.73.73,0,0,0-1.47,0V15.6a.73.73,0,0,0,.73.73"></path><path fill="#4C565C" d="M118.17,16.39a3.45,3.45,0,0,0,3.55-3.45v0a3.54,3.54,0,0,0-7.09,0v0A3.42,3.42,0,0,0,118.17,16.39Zm-2-3.47a2,2,0,0,1,2-2.08,2,2,0,0,1,2,2.1v0a2,2,0,0,1-2,2.08,2,2,0,0,1-2-2.1Z"></path><path fill="#4C565C" d="M124.39,15.61V12l2.93,3.85a.91.91,0,0,0,.76.43h0a.73.73,0,0,0,.73-.73V10.28a.72.72,0,1,0-1.45,0v3.44L124.59,10a.91.91,0,0,0-.76-.43h-.15a.73.73,0,0,0-.73.73v5.31a.72.72,0,1,0,1.45,0"></path><path fill="#4C565C" d="M133.57,16.28h1.94a3.34,3.34,0,0,0,3.54-3.33v0a3.32,3.32,0,0,0-3.54-3.32h-1.94a.38.38,0,0,0-.37.38V15.9A.38.38,0,0,0,133.57,16.28Zm.38-6h1.56a2.6,2.6,0,0,1,2.76,2.64v0a2.58,2.58,0,0,1-2.76,2.62H134Z"></path><path fill="#4C565C" d="M140.93,16.28h4.19a.34.34,0,0,0,0-.69h-3.81V13.26h3.33a.34.34,0,0,0,.34-.34.35.35,0,0,0-.34-.34h-3.33V10.3h3.76a.34.34,0,0,0,0-.69h-4.14a.38.38,0,0,0-.37.38V15.9a.38.38,0,0,0,.37.38"></path><path fill="#4C565C" d="M151.42,14.49v0c0-1-.69-1.56-2.17-1.89s-1.81-.67-1.81-1.3v0c0-.6.55-1.08,1.42-1.08a2.79,2.79,0,0,1,1.73.58.35.35,0,0,0,.22.07.36.36,0,0,0,.36-.36.39.39,0,0,0-.16-.3,3.4,3.4,0,0,0-2.12-.66,2,2,0,0,0-2.19,1.82v0c0,1.1.7,1.59,2.24,1.92s1.74.65,1.74,1.27v0c0,.66-.59,1.13-1.49,1.13a3,3,0,0,1-2.11-.79.33.33,0,0,0-.23-.09.36.36,0,0,0-.36.37.34.34,0,0,0,.14.29,3.89,3.89,0,0,0,2.52.9c1.32,0,2.28-.74,2.28-1.89"></path><path fill="#4C565C" d="M65.25,22.41a2.19,2.19,0,0,1,1.36.48A.79.79,0,0,0,67,23a.71.71,0,0,0,.72-.71.73.73,0,0,0-.29-.58,3.53,3.53,0,0,0-2.23-.68,3.39,3.39,0,0,0-3.48,3.45v0a3.51,3.51,0,0,0,5.79,2.59.68.68,0,1,0-.88-1,2.13,2.13,0,0,1-1.45.52,2,2,0,0,1-1.94-2.09v0a2,2,0,0,1,1.94-2.08"></path><path fill="#4C565C" d="M70.49,27.17v-2h2.71v2a.73.73,0,0,0,1.47,0V21.85a.73.73,0,1,0-1.47,0v2H70.49v-2a.73.73,0,1,0-1.47,0v5.32a.73.73,0,0,0,1.47,0"></path><path fill="#4C565C" d="M77,21.12a.73.73,0,0,0-.73.73v5.32a.73.73,0,0,0,1.47,0V21.85a.73.73,0,0,0-.73-.73"></path><path fill="#4C565C" d="M79.28,21.91v5.26a.73.73,0,0,0,1.47,0V25.71h1.17l1.43,1.81a.88.88,0,0,0,.72.38.68.68,0,0,0,.7-.67.85.85,0,0,0-.24-.56l-1-1.24a2,2,0,0,0,1.33-2v0a2.09,2.09,0,0,0-.57-1.52,2.66,2.66,0,0,0-1.94-.68H80A.73.73,0,0,0,79.28,21.91Zm1.47.59h1.46c.71,0,1.15.32,1.15,1v0c0,.56-.41.94-1.12.94H80.75Z"></path><path fill="#4C565C" d="M91.79,24.94V21.85a.73.73,0,0,0-1.47,0V25c0,1.06-.54,1.6-1.44,1.6s-1.44-.56-1.44-1.65v-3.1a.73.73,0,0,0-1.47,0V25a2.65,2.65,0,0,0,2.89,3,2.68,2.68,0,0,0,2.92-3"></path><path fill="#4C565C" d="M94.67,25.71h1.17l1.43,1.81a.88.88,0,0,0,.72.38.68.68,0,0,0,.7-.67.85.85,0,0,0-.24-.56l-1-1.24a2,2,0,0,0,1.33-2v0a2.09,2.09,0,0,0-.57-1.52,2.65,2.65,0,0,0-1.94-.68H93.93a.73.73,0,0,0-.73.73v5.26a.73.73,0,0,0,1.47,0Zm0-3.21h1.46c.71,0,1.15.32,1.15,1v0c0,.56-.41.94-1.12.94H94.67Z"></path><path fill="#4C565C" d="M105.55,27.29a1,1,0,0,0,.51-.93V24.74a.73.73,0,0,0-.73-.73h-1.68a.64.64,0,0,0-.64.64.63.63,0,0,0,.64.63h1v1a2.35,2.35,0,0,1-1.38.4,2,2,0,0,1-2-2.11v0a2,2,0,0,1,1.92-2.08,2.33,2.33,0,0,1,1.46.46.73.73,0,0,0,1.17-.57.74.74,0,0,0-.3-.59,3.7,3.7,0,0,0-2.28-.65,3.42,3.42,0,0,0-3.5,3.45v0a3.34,3.34,0,0,0,3.5,3.43,4.43,4.43,0,0,0,2.33-.67"></path><path fill="#4C565C" d="M108.19,27.9a.73.73,0,0,0,.73-.73V21.85a.73.73,0,0,0-1.47,0v5.32a.73.73,0,0,0,.73.73"></path><path fill="#4C565C" d="M110.49,21.91v5.2a.73.73,0,0,0,.73.74H115a.65.65,0,0,0,.66-.65.66.66,0,0,0-.66-.66h-3v-1.4h2.54a.65.65,0,0,0,.66-.65.66.66,0,0,0-.66-.66h-2.54V22.48h3a.65.65,0,0,0,.66-.65.66.66,0,0,0-.66-.66h-3.7a.73.73,0,0,0-.73.73"></path><path fill="#4C565C" d="M122,21.12a.72.72,0,0,0-.72.72v3.44l-2.83-3.72a.91.91,0,0,0-.76-.43h-.15a.73.73,0,0,0-.73.73v5.31a.72.72,0,0,0,1.45,0V23.6l2.93,3.85a.91.91,0,0,0,.76.43h0a.73.73,0,0,0,.73-.73v-5.3a.72.72,0,0,0-.72-.72"></path><path fill="#4C565C" d="M126.94,23.85c-1.15-.3-1.44-.44-1.44-.88v0c0-.32.29-.58.86-.58a2.78,2.78,0,0,1,1.4.45.71.71,0,0,0,.37.1.68.68,0,0,0,.36-1.26,3.87,3.87,0,0,0-2.12-.59,2.08,2.08,0,0,0-2.33,2v0c0,1.32.87,1.7,2.21,2,1.11.29,1.34.47,1.34.85v0c0,.39-.36.63-1,.63a2.8,2.8,0,0,1-1.7-.6.72.72,0,0,0-.42-.13.67.67,0,0,0-.69.67.69.69,0,0,0,.28.55,4.3,4.3,0,0,0,2.51.8c1.44,0,2.45-.74,2.45-2.07v0c0-1.16-.76-1.65-2.11-2"></path><path fill="#4C565C" d="M135.61,21.18h-1.87a.73.73,0,0,0-.73.73v5.2a.73.73,0,0,0,.73.73h1.87a3.34,3.34,0,0,0,3.54-3.33v0A3.32,3.32,0,0,0,135.61,21.18Zm2,3.35a1.9,1.9,0,0,1-2,2h-1.13v-4h1.13a1.91,1.91,0,0,1,2,2Z"></path><path fill="#4C565C" d="M144.84,26.54h-3v-1.4h2.54a.65.65,0,0,0,.66-.65.66.66,0,0,0-.66-.66h-2.54V22.48h3a.65.65,0,0,0,.66-.65.66.66,0,0,0-.66-.66h-3.7a.73.73,0,0,0-.73.73v5.2a.73.73,0,0,0,.73.73h3.74a.65.65,0,0,0,.66-.65.66.66,0,0,0-.66-.66"></path><path fill="#4C565C" d="M151.85,21.12a.72.72,0,0,0-.72.72v3.44l-2.83-3.72a.9.9,0,0,0-.76-.43h-.15a.73.73,0,0,0-.73.73v5.31a.72.72,0,0,0,1.45,0V23.6L151,27.45a.91.91,0,0,0,.76.43h0a.73.73,0,0,0,.73-.73v-5.3a.72.72,0,0,0-.73-.72"></path><path fill="#4C565C" d="M158.52,21.17h-4.29a.68.68,0,0,0,0,1.35h1.41v4.64a.73.73,0,0,0,1.47,0V22.53h1.41a.68.68,0,0,0,0-1.35"></path><path fill="#4C565C" d="M161,21.12a.73.73,0,0,0-.73.73v5.32a.73.73,0,0,0,1.47,0V21.85a.73.73,0,0,0-.73-.73"></path><path fill="#4C565C" d="M166,23.85c-1.15-.3-1.44-.44-1.44-.88v0c0-.32.29-.58.86-.58a2.78,2.78,0,0,1,1.4.45.71.71,0,0,0,.37.1.68.68,0,0,0,.69-.68.67.67,0,0,0-.32-.58,3.86,3.86,0,0,0-2.11-.59,2.08,2.08,0,0,0-2.33,2v0c0,1.32.87,1.7,2.21,2,1.11.29,1.34.47,1.34.85v0c0,.39-.36.63-1,.63A2.8,2.8,0,0,1,164,26a.71.71,0,0,0-.42-.13.67.67,0,0,0-.69.67.69.69,0,0,0,.28.55,4.3,4.3,0,0,0,2.51.8c1.44,0,2.45-.74,2.45-2.07v0c0-1.16-.76-1.65-2.12-2"></path><path fill="#4C565C" d="M173.57,21.17h-4.29a.68.68,0,0,0,0,1.35h1.41v4.64a.73.73,0,0,0,1.47,0V22.53h1.41a.68.68,0,0,0,0-1.35"></path><path fill="#4C565C" d="M179.7,26.54h-3v-1.4h2.54a.65.65,0,0,0,.66-.65.66.66,0,0,0-.66-.66h-2.54V22.48h3a.65.65,0,0,0,.66-.65.66.66,0,0,0-.66-.66H176a.73.73,0,0,0-.73.73v5.2a.73.73,0,0,0,.73.73h3.74a.65.65,0,0,0,.66-.65.66.66,0,0,0-.66-.66"></path><path fill="#4C565C" d="M184.22,23.85c-1.15-.3-1.44-.44-1.44-.88v0c0-.32.29-.58.86-.58a2.78,2.78,0,0,1,1.4.45.71.71,0,0,0,.37.1.68.68,0,0,0,.36-1.26,3.86,3.86,0,0,0-2.11-.59,2.08,2.08,0,0,0-2.33,2v0c0,1.32.87,1.7,2.21,2,1.11.29,1.34.47,1.34.85v0c0,.39-.36.63-1,.63a2.8,2.8,0,0,1-1.71-.6.71.71,0,0,0-.42-.13.67.67,0,0,0-.69.67.69.69,0,0,0,.28.55,4.31,4.31,0,0,0,2.5.8c1.44,0,2.45-.74,2.45-2.07v0c0-1.16-.76-1.65-2.12-2"></path><path fill="#4C565C" d="M64.53,32.74H62.59a.38.38,0,0,0-.37.38V39a.38.38,0,0,0,.37.38h1.94a3.34,3.34,0,0,0,3.54-3.33v0A3.32,3.32,0,0,0,64.53,32.74Zm2.76,3.35a2.58,2.58,0,0,1-2.76,2.62H63V33.44h1.56a2.59,2.59,0,0,1,2.76,2.64Z"></path><path fill="#4C565C" d="M74.66,32.69a.38.38,0,0,0-.38.38v3.54c0,1.46-.78,2.2-2,2.2a2,2,0,0,1-2-2.25v-3.5a.38.38,0,1,0-.75,0v3.54A2.78,2.78,0,1,0,75,36.56V33.07a.38.38,0,0,0-.37-.38"></path><path fill="#4C565C" d="M82.6,32.63A3.45,3.45,0,0,0,79,36.07v0a3.42,3.42,0,0,0,3.54,3.43,3.63,3.63,0,0,0,2-.57l.36.32a.69.69,0,0,0,1.17-.5.72.72,0,0,0-.27-.55L85.54,38a3.43,3.43,0,0,0,.59-1.92v0A3.42,3.42,0,0,0,82.6,32.63Zm2,3.47a2.32,2.32,0,0,1-.18.91l-.73-.66a.68.68,0,0,0-.49-.2.69.69,0,0,0-.69.7.72.72,0,0,0,.27.55l.69.59a2,2,0,0,1-.88.18,2,2,0,0,1-2-2.1v0a2,2,0,0,1,2-2.08,2,2,0,0,1,2,2.09Z"></path><path fill="#4C565C" d="M92.32,32.68a.73.73,0,0,0-.73.73v3.14c0,1.06-.54,1.6-1.44,1.6s-1.44-.56-1.44-1.65V33.42a.73.73,0,0,0-1.47,0v3.13a2.65,2.65,0,0,0,2.89,3,2.68,2.68,0,0,0,2.92-3V33.42a.73.73,0,0,0-.73-.73"></path><path fill="#4C565C" d="M97.22,30.95l-.52.82a.53.53,0,0,0-.1.26c0,.15.15.25.36.25a1.06,1.06,0,0,0,.83-.31l.59-.55a.47.47,0,0,0,.19-.34c0-.22-.46-.44-.81-.44a.62.62,0,0,0-.54.32"></path><path fill="#4C565C" d="M98.95,38.1h-3V36.7h2.54a.65.65,0,0,0,.66-.65.66.66,0,0,0-.66-.66H95.93V34h3a.65.65,0,0,0,.66-.65.66.66,0,0,0-.66-.66H95.2a.73.73,0,0,0-.73.73v5.2a.73.73,0,0,0,.73.73h3.74a.65.65,0,0,0,.66-.65.66.66,0,0,0-.66-.66"></path><path fill="#4C565C" d="M105.19,35.92a1.55,1.55,0,0,0,.88-1.44v0a1.52,1.52,0,0,0-.46-1.13,2.41,2.41,0,0,0-1.74-.59H101.5a.73.73,0,0,0-.73.73v5.2a.73.73,0,0,0,.73.73h2.44c1.51,0,2.5-.61,2.5-1.83v0A1.63,1.63,0,0,0,105.19,35.92Zm-3-1.9h1.45c.62,0,1,.25,1,.69v0c0,.5-.41.71-1.06.71h-1.35ZM105,37.4c0,.5-.39.73-1,.73h-1.74V36.66h1.7c.75,0,1.09.28,1.09.72Z"></path><path fill="#4C565C" d="M112,38.1h-3V36.7h2.54a.65.65,0,0,0,.66-.65.66.66,0,0,0-.66-.66H109V34h3a.65.65,0,0,0,.66-.65.66.66,0,0,0-.66-.66h-3.7a.73.73,0,0,0-.73.73v5.2a.73.73,0,0,0,.73.73H112a.65.65,0,0,0,.66-.65.66.66,0,0,0-.66-.66"></path><path fill="#4C565C" d="M118.91,37.49a.69.69,0,0,0-.44.16,2.13,2.13,0,0,1-1.45.52,2,2,0,0,1-1.93-2.1v0A2,2,0,0,1,117,34a2.19,2.19,0,0,1,1.36.48.78.78,0,0,0,.44.14.71.71,0,0,0,.72-.71.74.74,0,0,0-.28-.58,3.53,3.53,0,0,0-2.23-.68,3.39,3.39,0,0,0-3.48,3.45v0a3.51,3.51,0,0,0,5.79,2.59.68.68,0,0,0-.44-1.2"></path></svg>