<svg xmlns:xlink="http://www.w3.org/1999/xlink" version="1.1" xmlns="http://www.w3.org/2000/svg" width="885" height="260"><path fill="#a4c2de" d="M165.592 0h-59.068c17.67 13.126 29.281 34.33 29.281 58.058 0 39.884-32.311 72.194-72.194 72.194-27.262 0-50.99-15.146-63.107-37.359v73.204c0 9.592 8.078 17.67 17.67 17.67h148.427c9.592 0 17.67-8.078 17.67-17.67V17.67C183.261 8.078 175.688 0 165.591 0z"/><path fill="#a4c2de" d="M63.107 1.515c-34.33 0-62.097 25.243-62.097 56.039s27.767 56.039 62.097 56.039 62.097-25.243 62.097-56.039S97.437 1.515 63.107 1.515zm42.912 67.65c-8.583 15.651-25.243 25.243-42.408 25.243-17.67 0-33.825-9.592-42.408-25.243-1.01-2.019-.505-4.544 1.515-6.058 2.019-1.01 4.544-.505 5.553 1.515 7.068 13.126 20.699 21.204 35.34 21.204s28.272-8.078 35.34-21.204c1.01-2.019 3.534-3.029 5.553-1.515 2.019 1.01 2.524 4.039 1.515 6.058z"/><path fill="#72787a" d="M219.107 131.262l10.097-2.524c.505 2.019.505 5.553.505 9.087v10.602c2.524-2.524 7.068-4.039 10.602-4.039 4.544 0 8.583 2.019 9.592 5.553.505 2.019 1.01 2.524 1.01 7.068v26.252h-9.592v-25.243c0-3.534-1.01-5.048-4.039-5.048-2.524 0-5.553 1.515-7.573 3.534v26.757h-10.097v-43.417c.505-3.534 0-7.068-.505-8.583zm36.349 15.146l10.097-1.01 6.563 21.709c.505 2.524 2.019 7.573 2.019 7.573s.505-4.039 1.01-6.058c.505-2.524.505-2.524 1.515-5.048l5.553-17.67h10.097l-13.631 37.864c-2.524 7.068-4.544 10.602-7.068 12.621s-5.553 3.029-9.087 3.534l-3.534-6.563c2.019-.505 4.544-1.515 6.058-2.524l3.029-3.029c1.01-1.515 1.01-2.019 2.019-4.544h-2.524c-.505-1.515-1.01-2.524-1.515-4.544-.505-2.524-2.019-6.058-2.019-6.058l-8.583-26.252zm74.719-2.524l4.039 6.058c-2.019 2.019-4.039 2.524-7.068 2.524h-2.524c1.515 1.515 2.019 3.534 2.019 6.058 0 6.563-6.058 11.107-13.631 11.107h-1.515c-2.019 1.515-3.534 2.019-3.534 3.029 0 .505.505 1.01 1.515 1.01h5.048c5.553 0 8.583 1.01 11.107 3.534 2.019 2.019 3.029 4.544 3.029 8.078 0 3.029-1.01 5.553-3.029 7.573-3.534 3.534-9.087 5.048-14.641 5.048s-10.602-1.01-14.136-4.039c-2.019-2.019-3.029-4.039-3.029-6.563 0-2.019.505-3.029 1.01-4.039h9.087c-.505 1.01-.505 1.01-.505 2.524 0 3.029 2.524 4.544 7.068 4.544 3.029 0 5.048-.505 6.058-1.01 1.515-1.01 2.524-2.524 2.524-4.039s-.505-3.029-1.515-3.534c-1.01-.505-2.524-1.01-5.048-1.01h-4.039c-4.544 0-7.068-.505-9.087-1.01-1.01-.505-1.515-1.01-2.019-2.019s-.505-2.019-.505-3.029c0-1.515.505-2.524 1.01-3.534 1.01-1.01 3.534-2.524 5.553-3.029-5.553-1.515-8.078-5.048-8.078-10.602 0-7.573 6.058-12.621 15.651-12.621 2.019 0 4.039 0 6.563 1.01 2.524.505 3.534 1.01 4.544 1.01 3.029 0 6.058-1.01 8.078-3.029zm-19.185 8.582c-3.534 0-6.058 2.019-6.058 5.553 0 4.039 2.524 5.553 5.553 5.553 4.039 0 6.058-2.019 6.058-5.553.505-3.534-2.019-5.553-5.553-5.553zm32.311-22.718c3.534 0 6.058 2.524 6.058 6.058s-2.524 6.058-6.058 6.058-6.058-2.524-6.058-6.058 3.029-6.058 6.058-6.058zm-5.049 16.66l9.592-1.515v38.369h-9.592v-36.854zm44.932 27.262l4.039 6.058c-4.544 3.534-9.087 5.048-14.136 5.048-10.602 0-17.67-7.573-17.67-19.184 0-6.563 1.515-11.107 4.544-14.641s6.563-5.048 11.612-5.048c4.544 0 8.583 1.515 10.602 4.039 3.534 3.534 5.048 8.583 5.048 16.66v2.019h-21.709v.505c0 5.553 3.029 9.087 8.078 9.087 3.029-1.01 6.563-2.019 9.592-4.544zm-5.048-45.942l4.039 7.573-16.155 7.573-3.029-5.553 15.146-9.592zm-12.621 32.816h11.107v-.505c0-2.524-.505-4.039-1.01-5.553-1.01-1.515-2.524-2.019-4.544-2.019-3.534 0-5.553 3.029-5.553 8.078zm27.766-13.127l8.583-2.524c1.01 1.515 1.515 3.029 1.515 4.544 2.524-1.515 2.524-2.019 4.544-2.524 2.019-1.01 4.544-1.515 6.563-1.515 4.039 0 8.078 2.019 9.087 5.553.505 1.515.505 3.029.505 5.553v27.262h-9.592v-24.233c0-4.039-.505-5.553-3.534-5.553-2.019 0-4.544 1.515-7.068 3.534v26.757h-9.592v-27.767c0-3.534-.505-6.563-1.01-9.087zm44.932-17.669c3.534 0 6.058 2.524 6.058 6.058s-2.524 6.058-6.058 6.058-6.058-2.524-6.058-6.058c-.505-3.534 2.524-6.058 6.058-6.058zm-5.048 16.66l9.592-1.515v38.369h-9.592v-36.854zm44.932 2.019l-3.534 6.563c-3.534-2.019-6.563-2.524-9.087-2.524-3.029 0-4.544 1.515-4.544 3.534s1.01 3.029 4.544 4.039l4.544 1.01c4.544 1.01 6.058 2.524 7.573 4.039s2.019 4.039 2.019 6.563c0 7.573-6.563 13.126-16.155 13.126-4.544 0-9.592-1.515-15.146-4.544l3.534-7.068c3.029 2.019 8.078 4.039 12.621 4.039 3.029 0 5.048-2.019 5.048-4.039 0-2.524-2.019-4.039-5.553-4.544l-4.544-1.01c-2.524-.505-5.553-2.019-7.068-4.039-1.515-1.515-2.019-4.544-2.019-6.563 0-7.573 5.553-12.116 14.641-12.116 5.553 0 9.592 2.019 13.126 3.534zm27.262-2.524l-2.524 6.563h-6.058v19.184c0 4.544 1.01 6.058 4.039 6.058 1.01 0 1.515 0 3.534-.505l1.01 6.058c-3.029 1.01-5.553 1.515-8.078 1.515-5.048 0-9.087-2.019-10.097-5.553-.505-1.515-.505-2.524-.505-5.553v-20.699h-3.534v-6.563h3.534c0-3.534 0-6.058.505-9.087l10.097-2.524c-.505 3.534-.505 7.573-.505 11.107h8.583zm29.787 27.767l4.039 6.058c-4.544 3.534-9.087 5.048-14.136 5.048-10.602 0-17.67-7.573-17.67-19.184 0-6.563 1.515-11.107 4.544-14.641s6.563-5.048 11.612-5.048c4.544 0 8.583 1.515 11.107 4.039 3.534 3.534 5.048 8.583 5.048 16.66v2.019h-21.709v.505c0 5.553 3.029 9.087 8.078 9.087 3.029-1.01 6.058-2.019 9.087-4.544zm-17.165-13.126h11.107v-.505c0-2.524-.505-4.039-1.01-5.553-1.01-1.515-2.524-2.019-4.544-2.019-3.534 0-5.553 3.029-5.553 8.078zm55.029-12.117l-3.029 6.563c-3.534-2.019-6.563-2.524-9.087-2.524-3.029 0-4.544 1.515-4.544 3.534s1.01 3.029 4.544 4.039l4.544 1.01c4.544 1.01 6.058 2.524 7.573 4.039s2.019 4.039 2.019 6.563c0 7.573-6.563 13.126-16.155 13.126-4.544 0-9.592-1.515-15.146-4.544l3.534-7.068c3.029 2.019 8.078 4.039 12.621 4.039 3.029 0 5.048-2.019 5.048-4.039 0-2.524-2.019-4.039-6.058-4.544l-4.544-1.01c-2.524-.505-5.553-2.019-7.068-4.039-1.515-1.515-2.019-4.544-2.019-6.563 0-7.573 6.058-12.116 14.641-12.116 6.058 0 9.592 2.019 13.126 3.534zm56.038-17.67v38.874c0 9.087.505 12.116 1.515 13.631h-8.583c-.505-.505-.505-1.01-.505-2.019-2.524 2.019-5.048 3.029-8.583 3.029-9.592 0-15.651-7.573-15.651-19.184s6.563-19.689 16.155-19.689c2.524 0 5.048.505 6.563 2.019 0-1.01-.505-3.534-.505-5.553v-13.126l9.592 2.019zM619.456 156c-2.019-1.515-3.534-2.524-5.553-2.524-4.544 0-6.058 3.534-6.058 12.116 0 8.078 1.515 10.602 7.068 10.602 2.019 0 4.039-1.01 5.048-2.524V156zm44.932 17.67l4.039 6.058c-4.544 3.534-9.087 5.048-14.136 5.048-10.602 0-17.67-7.573-17.67-19.184 0-6.563 1.515-11.107 4.544-14.641s6.563-5.048 11.612-5.048c4.544 0 8.583 1.515 10.602 4.039 3.534 3.534 5.048 8.583 5.048 16.66v2.019h-21.709v.505c0 5.553 3.029 9.087 8.078 9.087 3.534-1.01 6.563-2.019 9.592-4.544zm-17.165-13.126h11.107v-.505c0-2.524-.505-4.039-1.01-5.553-1.01-1.515-2.524-2.019-4.544-2.019-3.534 0-5.553 3.029-5.553 8.078zm27.262-13.127l8.583-2.524c1.01 1.515 1.515 3.029 1.515 4.544 2.019-1.515 2.524-2.019 4.544-2.524 2.019-1.01 4.544-1.515 6.563-1.515 4.039 0 8.078 2.019 9.087 5.553.505 1.515.505 3.029.505 5.553v27.262h-9.592v-24.233c0-4.039-.505-5.553-3.534-5.553-2.019 0-4.544 1.515-6.563 3.534v26.757h-9.592v-27.767c0-3.534-.505-6.563-1.515-9.087zm59.068-1.514l-2.524 6.563h-6.058v19.184c0 4.544 1.01 6.058 4.039 6.058 1.01 0 1.515 0 3.534-.505l1.01 6.058c-3.029 1.01-5.553 1.515-8.078 1.515-5.048 0-9.087-2.019-10.097-5.553-.505-1.515-.505-2.524-.505-5.553v-20.699h-3.534v-6.563h3.534c0-3.534 0-6.058.505-9.087l10.097-2.524c-.505 3.534-.505 7.573-.505 11.107h8.583zm4.039 4.544c2.524-1.515 3.534-2.019 6.058-3.029 3.534-1.515 6.563-2.019 10.097-2.019 6.058 0 10.602 2.524 12.116 6.563.505 1.515.505 2.524.505 6.563v13.126c0 4.039.505 5.553 3.534 7.573l-5.048 6.058c-2.019-1.01-4.544-2.524-5.048-4.544l-2.019 2.019c-2.019 1.515-4.544 2.019-7.573 2.019-8.583 0-13.126-4.039-13.126-11.612 0-8.583 6.058-13.126 18.175-13.126h2.019v-1.515c0-4.039-1.01-5.553-4.544-5.553-3.029 0-7.068 1.515-11.107 4.039l-4.039-6.563zm19.185 16.66c-7.068 0-9.592 1.01-9.592 5.553 0 3.029 2.019 5.048 4.544 5.048 2.019 0 3.534-1.01 5.048-2.524v-8.078zm23.728-37.359c3.534 0 6.058 2.524 6.058 6.058s-2.524 6.058-6.058 6.058-6.058-2.524-6.058-6.058 2.524-6.058 6.058-6.058zm-5.049 16.66l9.592-1.515v38.369h-9.592v-36.854zm17.67 1.009l8.583-2.524c1.01 1.515 1.515 3.029 1.515 5.553 1.515-2.019 3.534-4.039 5.553-4.544 1.01-.505 2.019-.505 3.029-.505 1.515 0 2.019 0 3.534 1.01l-2.524 8.583c-1.01-.505-1.515-.505-3.029-.505-2.019 0-4.039 1.01-6.058 3.029v26.757h-9.592v-25.243c.505-5.553 0-9.592-1.01-11.612zm52 26.253l4.039 6.058c-4.544 3.534-9.087 5.048-14.136 5.048-10.602 0-17.67-7.573-17.67-19.184 0-6.563 1.515-11.107 4.544-14.641s6.563-5.048 11.612-5.048c4.544 0 8.583 1.515 11.107 4.039 3.534 3.534 5.048 8.583 5.048 16.66v2.019h-21.709v.505c0 5.553 3.029 9.087 8.078 9.087 2.524-1.01 6.058-2.019 9.087-4.544zm-17.67-13.126h11.612v-.505c0-2.524-.505-4.039-1.01-5.553-1.01-1.515-2.524-2.019-4.544-2.019-3.534 0-6.058 3.029-6.058 8.078zm55.534-12.117l-3.029 6.563c-3.534-2.019-6.563-2.524-9.087-2.524-3.029 0-4.544 1.515-4.544 3.534s1.01 3.029 4.544 4.039l4.544 1.01c4.544 1.01 6.058 2.524 7.573 4.039s2.019 4.039 2.019 6.563c0 7.573-6.563 13.126-16.155 13.126-4.544 0-9.592-1.515-15.146-4.544l3.534-7.068c3.029 2.019 8.078 4.039 12.621 4.039 3.029 0 5.048-2.019 5.048-4.039 0-2.524-2.019-4.039-5.553-4.544l-4.544-1.01c-2.524-.505-5.553-2.019-7.068-4.039-1.515-1.515-2.019-4.544-2.019-6.563 0-7.573 5.553-12.116 14.641-12.116 5.048 0 9.087 2.019 12.621 3.534zm-636.116 54.525v37.359c0 3.534 0 6.563.505 8.078 0 1.01.505 1.515.505 2.524h-5.553c-.505-1.515-.505-1.515-.505-3.534-1.01 1.01-1.515 1.515-2.524 2.019-1.515 1.01-4.039 2.019-6.563 2.019-8.583 0-13.631-6.058-13.631-17.165 0-7.068 2.524-12.621 7.068-15.651 2.019-1.515 4.039-2.019 6.563-2.019 3.534 0 7.068 1.515 9.087 4.544v-19.184l5.048 1.01zm-5.049 22.213c-1.515-2.524-4.039-3.534-8.078-3.534-2.524 0-5.048 1.01-6.058 3.534-1.515 2.524-2.019 5.048-2.019 9.592 0 5.553.505 8.583 2.524 10.602 1.515 1.515 3.029 2.019 5.553 2.019s4.544-.505 6.563-2.019c1.01-1.01 1.515-2.019 2.019-2.524v-17.67zm16.156-7.068l5.048-1.01v24.233c0 3.534.505 4.544 2.019 5.553 1.01.505 2.524 1.515 4.039 1.515 3.534 0 6.563-2.524 8.583-6.058v-23.728l5.048-1.01v23.728c0 4.039 0 5.048 1.01 6.058.505.505.505 1.01 1.515 2.019l-3.534 3.534c-2.019-2.019-3.029-3.029-3.534-5.553-2.524 3.534-6.058 5.048-10.602 5.048-4.039 0-7.573-1.515-9.087-5.048-.505-1.515-1.01-3.029-1.01-5.048v-24.233zm68.66 34.33c-5.553 0-10.097-2.524-12.621-6.058-3.534-4.039-5.553-10.602-5.553-18.175 0-14.641 7.068-23.728 18.175-23.728 7.068 0 12.116 3.534 14.641 7.573 3.029 4.544 4.039 9.592 4.039 17.165 0 9.087-2.019 14.641-6.563 18.68-1.01 1.01-2.019 1.515-3.029 2.019 2.019.505 4.544 2.019 6.058 3.029 1.515.505 3.534 2.019 6.058 2.019 1.01 0 2.524 0 2.524-.505l-2.019 4.544c-1.01.505-2.019.505-4.039.505-3.029 0-6.563-2.019-8.583-3.534-2.524-1.515-4.039-2.524-9.087-3.534zm.505-43.417c-4.039 0-8.078 2.019-9.592 5.553-1.515 3.029-2.524 7.068-2.524 12.621 0 7.068 1.01 13.126 3.029 16.155 1.515 3.029 6.058 5.048 10.097 5.048 3.534 0 6.563-1.515 8.583-4.039 2.524-3.029 3.534-7.068 3.534-14.136s-.505-11.612-2.524-14.641c-2.019-3.534-5.048-6.563-10.602-6.563zm27.767 9.087l5.048-1.01v24.233c0 3.534.505 4.544 2.019 5.553 1.01.505 2.524 1.515 4.039 1.515 3.534 0 6.563-2.524 8.583-6.058v-23.728l5.048-1.01v23.728c0 4.039 0 5.048 1.01 6.058.505.505.505 1.01 1.515 2.019l-3.534 3.534c-2.019-2.019-3.029-3.029-3.534-5.553-2.524 3.534-6.058 5.048-10.602 5.048-4.039 0-7.573-1.515-9.087-5.048-.505-1.515-1.01-3.029-1.01-5.048v-24.233zm58.058 26.757l2.019 3.534c-2.524 2.524-6.563 4.039-11.107 4.039-9.087 0-14.641-6.563-14.641-17.67 0-5.553 1.01-9.592 4.039-12.621 2.524-3.029 6.058-4.544 10.097-4.544 3.534 0 7.068 1.515 9.087 3.534 3.029 3.029 3.534 6.058 4.039 14.136v.505H395.3v1.01c0 3.029.505 5.553 1.515 7.573 2.019 3.029 5.048 4.039 8.583 4.039 3.029-.505 5.553-1.515 7.573-3.534zm-4.544-43.417l3.029 5.048-15.146 6.563-1.515-3.029 13.631-8.583zm-13.631 30.291h15.146c0-3.534-.505-6.058-1.515-7.573-1.01-2.019-3.534-3.029-6.058-3.029-4.544 0-7.068 3.534-7.573 10.602zm34.33-29.786c.505 3.029 1.01 5.048 1.01 8.583v11.107c3.534-3.029 6.058-4.544 9.592-4.544 8.078 0 13.126 6.563 13.126 17.165s-5.553 18.175-13.126 18.175c-3.534 0-7.573-2.019-9.087-4.544 0 2.019-.505 2.524-1.01 3.534h-5.048c.505-1.515 1.01-4.039 1.01-8.583v-31.806c0-3.534-.505-6.058-1.515-8.078l5.048-1.01zm1.01 24.233v17.165c1.515 2.524 5.048 4.039 8.078 4.039 2.524 0 5.048-1.01 6.058-3.029s2.524-5.048 2.524-10.602c0-4.544-.505-7.068-2.019-9.087s-3.534-3.029-6.563-3.029c-2.019 0-4.039.505-6.058 2.019-1.515 1.515-1.515 1.515-2.019 2.524zm53.515 18.679l2.019 3.534c-3.029 2.524-7.068 4.039-11.107 4.039-9.087 0-15.146-6.563-15.146-17.67 0-5.553 1.01-9.592 4.039-12.621 2.524-3.029 6.058-4.544 10.097-4.544 3.534 0 7.068 1.515 9.087 3.534 3.029 3.029 3.534 6.058 4.039 14.136v.505h-21.204v1.01c0 3.029.505 5.553 1.515 7.573 2.019 3.029 5.048 4.039 8.583 4.039 3.029-.505 5.553-1.515 8.078-3.534zm-18.175-13.126h15.146c0-3.534-.505-6.058-1.515-7.573-1.01-2.019-3.534-3.029-6.058-3.029-4.544 0-7.068 3.534-7.573 10.602zm50.99-11.107l-3.029 3.534c-2.524-2.019-4.039-2.524-6.563-2.524s-5.048 1.515-6.563 3.534c-1.515 2.524-2.019 6.058-2.019 11.107 0 7.573 3.029 11.612 8.078 11.612 2.524 0 5.048-1.515 7.068-3.534l3.029 3.534c-3.029 3.029-6.058 4.544-10.097 4.544-4.544 0-8.583-1.515-10.602-5.048-2.019-3.029-3.029-7.068-3.029-12.116 0-7.573 2.019-11.612 5.048-14.136 2.524-2.524 5.553-4.039 9.087-4.039 5.048 0 7.573 1.515 9.592 3.534zM237.787 66.641c8.078 0 12.116 4.039 14.641 7.573 3.029 4.544 4.039 9.592 4.039 17.165 0 9.087-2.019 14.641-6.563 18.68-3.534 3.029-7.068 4.544-11.612 4.544-5.553 0-10.097-2.524-13.126-6.058-3.534-4.039-5.553-10.602-5.553-18.175-.505-14.641 6.563-23.728 18.175-23.728zm0 4.543c-4.544 0-8.078 2.019-10.097 5.553-1.515 3.029-2.524 7.068-2.524 12.621 0 7.068 1.01 13.126 3.029 16.155 1.515 3.029 6.058 5.048 10.097 5.048 3.534 0 6.563-1.515 8.583-4.039 2.524-3.029 3.534-6.563 3.534-14.136 0-6.563-.505-11.612-2.019-14.641-2.019-3.534-5.553-6.563-10.602-6.563zm26.757 9.593l5.048-1.515c1.01 1.515 1.01 2.524 1.01 5.048v.505c2.524-3.534 6.058-5.553 9.592-5.553 1.01 0 2.019.505 2.019.505l-2.019 5.553c-.505 0-1.01-.505-1.515-.505-2.019 0-4.039 1.01-5.553 2.524s-2.019 2.524-2.019 5.553v21.204h-5.048V88.348c0-4.039-.505-5.553-1.515-7.573zm48.971-15.146v37.359c0 3.534 0 6.563.505 8.078 0 1.01.505 1.515.505 2.524h-5.553c-.505-1.515-.505-1.515-.505-3.534-1.01 1.01-1.515 1.515-2.524 2.019-1.515 1.01-4.039 2.019-6.563 2.019-8.583 0-13.631-6.058-13.631-17.165 0-7.068 2.524-12.621 7.068-15.651 2.019-1.515 4.039-2.019 6.563-2.019 3.534 0 7.068 1.515 9.087 4.544V64.621l5.048 1.01zm-5.554 21.709c-1.515-2.524-4.039-3.534-8.078-3.534-2.524 0-5.048 1.01-6.058 3.534-1.515 2.524-2.019 5.048-2.019 9.592 0 5.553.505 8.583 2.524 10.602 1.515 1.515 3.029 2.019 5.553 2.019s4.544-.505 6.563-2.019c1.01-1.01 1.515-2.019 2.019-2.524V87.34zm15.651-6.563l5.048-1.515c1.01 1.515 1.01 2.524 1.01 5.048v.505c2.524-3.534 6.058-5.553 9.592-5.553 1.01 0 2.019.505 2.019.505l-2.019 5.553c-.505 0-1.01-.505-1.515-.505-2.019 0-4.039 1.01-5.553 2.524s-2.019 2.524-2.019 5.553v21.204h-5.048V88.348c-.505-4.039-.505-5.553-1.515-7.573zm44.932 26.252l2.019 3.534c-3.029 2.524-7.068 4.039-11.107 4.039-9.087 0-15.146-6.563-15.146-17.67 0-5.553 1.01-9.592 4.039-12.621 2.524-3.029 6.058-4.544 10.097-4.544 3.534 0 7.068 1.515 9.087 3.534 3.029 3.029 3.534 6.058 4.039 14.136v.505h-21.204v1.01c0 3.029.505 5.553 1.515 7.573 2.019 3.029 5.048 4.039 8.583 4.039 3.029-.505 5.553-1.515 8.078-3.534zm-18.175-13.126h15.146c0-3.534-.505-6.058-1.515-7.573-1.01-2.019-3.534-3.029-6.058-3.029-4.544 0-7.573 3.534-7.573 10.602zm72.194-28.272v37.359c0 3.534 0 6.563.505 8.078 0 1.01.505 1.515.505 2.524h-5.553c-.505-1.515-.505-1.515-.505-3.534-1.01 1.01-1.515 1.515-2.524 2.019-1.515 1.01-4.039 2.019-6.563 2.019-8.583 0-13.631-6.058-13.631-17.165 0-7.068 2.524-12.621 7.068-15.651 2.019-1.515 4.039-2.019 6.563-2.019 3.534 0 7.068 1.515 9.087 4.544V64.621l5.048 1.01zm-5.048 21.709c-1.515-2.524-4.039-3.534-8.078-3.534-2.524 0-5.048 1.01-6.058 3.534-1.515 2.524-2.019 5.048-2.019 9.592 0 5.553.505 8.583 2.524 10.602 1.515 1.515 3.029 2.019 5.553 2.019s4.544-.505 6.563-2.019c1.01-1.01 1.515-2.019 2.019-2.524V87.34zm38.369 19.689l2.019 3.534c-3.029 2.524-7.068 4.039-11.107 4.039-9.087 0-15.146-6.563-15.146-17.67 0-5.553 1.01-9.592 4.039-12.621 2.524-3.029 6.058-4.544 10.097-4.544 3.534 0 7.068 1.515 9.087 3.534 3.029 3.029 3.534 6.058 4.039 14.136v.505h-21.204v1.01c0 3.029.505 5.553 1.515 7.573 2.019 3.029 5.048 4.039 8.583 4.039 3.029-.505 6.058-1.515 8.078-3.534zm-18.175-13.126h15.146c0-3.534-.505-6.058-1.515-7.573-1.01-2.019-3.534-3.029-6.058-3.029-4.544 0-7.068 3.534-7.573 10.602zm50.485-12.116l-2.019 4.039c-3.029-1.515-5.553-2.524-8.583-2.524-4.039 0-6.563 2.019-6.563 5.553 0 1.01.505 2.019 1.01 3.029s2.019 1.515 4.039 2.019l4.544 1.01c6.058 1.515 9.087 4.544 9.087 9.592 0 6.563-5.048 11.107-12.621 11.107-4.039 0-9.087-1.515-12.116-3.534l2.019-4.039c3.534 2.019 7.068 3.029 10.602 3.029 4.039 0 7.068-2.019 7.068-6.058 0-3.029-1.515-4.544-5.553-5.553l-4.544-1.01c-3.029-.505-5.048-1.515-6.563-3.534-1.515-1.515-2.019-3.534-2.019-6.058 0-6.058 5.048-10.097 12.116-10.097 3.029 0 7.068 1.01 10.097 3.029z"/></svg>